<svg xmlns="http://www.w3.org/2000/svg" width="480" height="205" viewBox="0 0 480 205">
  <rect x="1" y="1" width="478" height="203" rx="10" fill="#090d16" stroke="#334155" stroke-width="1"/>
  <text x="30" y="36" font-family="'Segoe UI',Helvetica,Arial,sans-serif" font-size="17" font-weight="bold" fill="#38bdf8">Most Used Languages</text>
  <rect x="30.0" y="52" width="207.2" height="10" rx="2" fill="#f1e05a"/><rect x="237.2" y="52" width="98.8" height="10" rx="2" fill="#3178c6"/><rect x="335.9" y="52" width="37.3" height="10" rx="2" fill="#178600"/><rect x="373.3" y="52" width="33.2" height="10" rx="2" fill="#555555"/><rect x="406.4" y="52" width="24.6" height="10" rx="2" fill="#00B4AB"/><rect x="431.0" y="52" width="19.0" height="10" rx="2" fill="#A97BFF"/>
  <circle cx="40" cy="73" r="5" fill="#f1e05a"/><text x="54" y="78" font-family="'Segoe UI',Helvetica,Arial,sans-serif" font-size="14" fill="#e2e8f0">JavaScript</text><text x="450" y="78" font-family="'Segoe UI',Helvetica,Arial,sans-serif" font-size="14" font-weight="bold" fill="#38bdf8" text-anchor="end">49.3%</text><circle cx="40" cy="93" r="5" fill="#3178c6"/><text x="54" y="98" font-family="'Segoe UI',Helvetica,Arial,sans-serif" font-size="14" fill="#e2e8f0">TypeScript</text><text x="450" y="98" font-family="'Segoe UI',Helvetica,Arial,sans-serif" font-size="14" font-weight="bold" fill="#38bdf8" text-anchor="end">23.5%</text><circle cx="40" cy="113" r="5" fill="#178600"/><text x="54" y="118" font-family="'Segoe UI',Helvetica,Arial,sans-serif" font-size="14" fill="#e2e8f0">C#</text><text x="450" y="118" font-family="'Segoe UI',Helvetica,Arial,sans-serif" font-size="14" font-weight="bold" fill="#38bdf8" text-anchor="end">8.9%</text><circle cx="40" cy="133" r="5" fill="#555555"/><text x="54" y="138" font-family="'Segoe UI',Helvetica,Arial,sans-serif" font-size="14" fill="#e2e8f0">C</text><text x="450" y="138" font-family="'Segoe UI',Helvetica,Arial,sans-serif" font-size="14" font-weight="bold" fill="#38bdf8" text-anchor="end">7.9%</text><circle cx="40" cy="153" r="5" fill="#00B4AB"/><text x="54" y="158" font-family="'Segoe UI',Helvetica,Arial,sans-serif" font-size="14" fill="#e2e8f0">Dart</text><text x="450" y="158" font-family="'Segoe UI',Helvetica,Arial,sans-serif" font-size="14" font-weight="bold" fill="#38bdf8" text-anchor="end">5.9%</text><circle cx="40" cy="173" r="5" fill="#A97BFF"/><text x="54" y="178" font-family="'Segoe UI',Helvetica,Arial,sans-serif" font-size="14" fill="#e2e8f0">Kotlin</text><text x="450" y="178" font-family="'Segoe UI',Helvetica,Arial,sans-serif" font-size="14" font-weight="bold" fill="#38bdf8" text-anchor="end">4.5%</text>
</svg>
