<svg xmlns="http://www.w3.org/2000/svg" width="480" height="205" viewBox="0 0 480 205">
  <rect x="1" y="1" width="478" height="203" rx="10" fill="#1a1b27" stroke="#31344a" stroke-width="1"/>
  <text x="30" y="36" font-family="'Segoe UI',Helvetica,Arial,sans-serif" font-size="17" font-weight="bold" fill="#70a5fd">Most Used Languages</text>
  <rect x="30.0" y="52" width="244.7" height="10" rx="2" fill="#f1e05a"/><rect x="274.7" y="52" width="73.8" height="10" rx="2" fill="#3178c6"/><rect x="348.5" y="52" width="42.5" height="10" rx="2" fill="#178600"/><rect x="391.0" y="52" width="24.9" height="10" rx="2" fill="#00B4AB"/><rect x="415.9" y="52" width="19.7" height="10" rx="2" fill="#563d7c"/><rect x="435.6" y="52" width="14.4" height="10" rx="2" fill="#A97BFF"/>
  <circle cx="40" cy="73" r="5" fill="#f1e05a"/><text x="54" y="78" font-family="'Segoe UI',Helvetica,Arial,sans-serif" font-size="14" fill="#c0caf5">JavaScript</text><text x="450" y="78" font-family="'Segoe UI',Helvetica,Arial,sans-serif" font-size="14" font-weight="bold" fill="#70a5fd" text-anchor="end">58.3%</text><circle cx="40" cy="93" r="5" fill="#3178c6"/><text x="54" y="98" font-family="'Segoe UI',Helvetica,Arial,sans-serif" font-size="14" fill="#c0caf5">TypeScript</text><text x="450" y="98" font-family="'Segoe UI',Helvetica,Arial,sans-serif" font-size="14" font-weight="bold" fill="#70a5fd" text-anchor="end">17.6%</text><circle cx="40" cy="113" r="5" fill="#178600"/><text x="54" y="118" font-family="'Segoe UI',Helvetica,Arial,sans-serif" font-size="14" fill="#c0caf5">C#</text><text x="450" y="118" font-family="'Segoe UI',Helvetica,Arial,sans-serif" font-size="14" font-weight="bold" fill="#70a5fd" text-anchor="end">10.1%</text><circle cx="40" cy="133" r="5" fill="#00B4AB"/><text x="54" y="138" font-family="'Segoe UI',Helvetica,Arial,sans-serif" font-size="14" fill="#c0caf5">Dart</text><text x="450" y="138" font-family="'Segoe UI',Helvetica,Arial,sans-serif" font-size="14" font-weight="bold" fill="#70a5fd" text-anchor="end">5.9%</text><circle cx="40" cy="153" r="5" fill="#563d7c"/><text x="54" y="158" font-family="'Segoe UI',Helvetica,Arial,sans-serif" font-size="14" fill="#c0caf5">CSS</text><text x="450" y="158" font-family="'Segoe UI',Helvetica,Arial,sans-serif" font-size="14" font-weight="bold" fill="#70a5fd" text-anchor="end">4.7%</text><circle cx="40" cy="173" r="5" fill="#A97BFF"/><text x="54" y="178" font-family="'Segoe UI',Helvetica,Arial,sans-serif" font-size="14" fill="#c0caf5">Kotlin</text><text x="450" y="178" font-family="'Segoe UI',Helvetica,Arial,sans-serif" font-size="14" font-weight="bold" fill="#70a5fd" text-anchor="end">3.4%</text>
</svg>
