<svg xmlns="http://www.w3.org/2000/svg" width="480" height="205" viewBox="0 0 480 205">
  <rect x="1" y="1" width="478" height="203" rx="10" fill="#ffffff" stroke="#d0d7de" stroke-width="1"/>
  <text x="30" y="36" font-family="'Segoe UI',Helvetica,Arial,sans-serif" font-size="17" font-weight="bold" fill="#0969da">Most Used Languages</text>
  <rect x="30.0" y="52" width="269.4" height="10" rx="2" fill="#f1e05a"/><rect x="299.4" y="52" width="47.0" height="10" rx="2" fill="#178600"/><rect x="346.4" y="52" width="41.0" height="10" rx="2" fill="#3178c6"/><rect x="387.3" y="52" width="27.5" height="10" rx="2" fill="#00B4AB"/><rect x="414.8" y="52" width="20.2" height="10" rx="2" fill="#563d7c"/><rect x="435.1" y="52" width="14.9" height="10" rx="2" fill="#e34c26"/>
  <circle cx="40" cy="73" r="5" fill="#f1e05a"/><text x="54" y="78" font-family="'Segoe UI',Helvetica,Arial,sans-serif" font-size="14" fill="#24292f">JavaScript</text><text x="450" y="78" font-family="'Segoe UI',Helvetica,Arial,sans-serif" font-size="14" font-weight="bold" fill="#0969da" text-anchor="end">64.1%</text><circle cx="40" cy="93" r="5" fill="#178600"/><text x="54" y="98" font-family="'Segoe UI',Helvetica,Arial,sans-serif" font-size="14" fill="#24292f">C#</text><text x="450" y="98" font-family="'Segoe UI',Helvetica,Arial,sans-serif" font-size="14" font-weight="bold" fill="#0969da" text-anchor="end">11.2%</text><circle cx="40" cy="113" r="5" fill="#3178c6"/><text x="54" y="118" font-family="'Segoe UI',Helvetica,Arial,sans-serif" font-size="14" fill="#24292f">TypeScript</text><text x="450" y="118" font-family="'Segoe UI',Helvetica,Arial,sans-serif" font-size="14" font-weight="bold" fill="#0969da" text-anchor="end">9.8%</text><circle cx="40" cy="133" r="5" fill="#00B4AB"/><text x="54" y="138" font-family="'Segoe UI',Helvetica,Arial,sans-serif" font-size="14" fill="#24292f">Dart</text><text x="450" y="138" font-family="'Segoe UI',Helvetica,Arial,sans-serif" font-size="14" font-weight="bold" fill="#0969da" text-anchor="end">6.6%</text><circle cx="40" cy="153" r="5" fill="#563d7c"/><text x="54" y="158" font-family="'Segoe UI',Helvetica,Arial,sans-serif" font-size="14" fill="#24292f">CSS</text><text x="450" y="158" font-family="'Segoe UI',Helvetica,Arial,sans-serif" font-size="14" font-weight="bold" fill="#0969da" text-anchor="end">4.8%</text><circle cx="40" cy="173" r="5" fill="#e34c26"/><text x="54" y="178" font-family="'Segoe UI',Helvetica,Arial,sans-serif" font-size="14" fill="#24292f">HTML</text><text x="450" y="178" font-family="'Segoe UI',Helvetica,Arial,sans-serif" font-size="14" font-weight="bold" fill="#0969da" text-anchor="end">3.6%</text>
</svg>
